<svg width="375" height="143" viewBox="0 0 375 143" fill="none" xmlns="http://www.w3.org/2000/svg">
<g filter="url(#filter0_dd_117_84)">
<path d="M72.3504 75C69.3817 75 67.0701 74.2213 65.4154 72.664C63.7607 71.1067 62.9334 68.9167 62.9334 66.094V32.66C62.9334 29.9347 63.7364 27.7933 65.3424 26.236C66.9971 24.6787 69.2844 23.9 72.2044 23.9H94.8344C96.7324 23.9 97.6814 24.6787 97.6814 26.236C97.6814 26.9173 97.4381 27.4527 96.9514 27.842C96.4647 28.2313 95.7591 28.426 94.8344 28.426H72.2774C71.1094 28.426 70.1604 28.8153 69.4304 29.594C68.7491 30.3727 68.4084 31.3947 68.4084 32.66V46.603H89.2864C91.1844 46.603 92.1334 47.3817 92.1334 48.939C92.1334 49.669 91.8657 50.2287 91.3304 50.618C90.8437 51.0073 90.1624 51.202 89.2864 51.202H68.4084V66.24C68.4084 67.5053 68.7491 68.5273 69.4304 69.306C70.1604 70.0847 71.1094 70.474 72.2774 70.474H96.4404C98.3384 70.474 99.2874 71.2283 99.2874 72.737C99.2874 73.467 99.0197 74.0267 98.4844 74.416C97.9977 74.8053 97.3164 75 96.4404 75H72.3504ZM118.035 75.73C117.207 75.73 116.55 75.4867 116.064 75C115.577 74.4647 115.334 73.7347 115.334 72.81V39.814C115.334 34.6553 116.794 30.5917 119.714 27.623C122.634 24.6543 126.649 23.17 131.759 23.17C134.727 23.17 137.453 23.9487 139.935 25.506C142.465 27.0147 144.363 29.0343 145.629 31.565C146.894 28.9857 148.743 26.9417 151.177 25.433C153.659 23.9243 156.433 23.17 159.499 23.17C164.609 23.17 168.624 24.6543 171.544 27.623C174.464 30.543 175.924 34.6067 175.924 39.814V72.81C175.924 73.7347 175.656 74.4647 175.121 75C174.634 75.4867 173.977 75.73 173.15 75.73C172.274 75.73 171.592 75.4867 171.106 75C170.668 74.4647 170.449 73.7347 170.449 72.81V39.814C170.449 35.9693 169.573 33.025 167.821 30.981C166.117 28.937 163.295 27.915 159.353 27.915C155.897 27.915 153.196 28.9857 151.25 31.127C149.303 33.2197 148.33 36.1153 148.33 39.814V72.81C148.33 73.7347 148.086 74.4647 147.6 75C147.113 75.4867 146.456 75.73 145.629 75.73C144.801 75.73 144.144 75.4867 143.658 75C143.22 74.4647 143.001 73.7347 143.001 72.81V39.814C143.001 36.2127 141.979 33.3413 139.935 31.2C137.891 29.01 135.214 27.915 131.905 27.915C127.963 27.915 125.116 28.937 123.364 30.981C121.66 33.025 120.809 35.9693 120.809 39.814V72.81C120.809 73.7347 120.565 74.4647 120.079 75C119.592 75.4867 118.911 75.73 118.035 75.73ZM216.079 75.73C211.164 75.73 206.735 74.6593 202.793 72.518C198.851 70.328 195.737 67.2377 193.449 63.247C191.211 59.2563 190.091 54.6573 190.091 49.45C190.091 44.194 191.211 39.595 193.449 35.653C195.737 31.6623 198.851 28.5963 202.793 26.455C206.735 24.265 211.164 23.17 216.079 23.17C220.995 23.17 225.423 24.265 229.365 26.455C233.307 28.5963 236.398 31.6623 238.636 35.653C240.924 39.595 242.067 44.194 242.067 49.45C242.067 54.6573 240.924 59.2563 238.636 63.247C236.398 67.2377 233.307 70.328 229.365 72.518C225.423 74.6593 220.995 75.73 216.079 75.73ZM216.079 71.058C220.021 71.058 223.525 70.2063 226.591 68.503C229.706 66.7997 232.139 64.342 233.891 61.13C235.692 57.8693 236.592 53.976 236.592 49.45C236.592 44.8753 235.668 40.9577 233.818 37.697C232.018 34.4363 229.536 31.9787 226.372 30.324C223.258 28.6693 219.778 27.842 215.933 27.842C212.04 27.842 208.536 28.6937 205.421 30.397C202.355 32.1003 199.946 34.5823 198.194 37.843C196.442 41.1037 195.566 44.9727 195.566 49.45C195.566 53.976 196.442 57.8693 198.194 61.13C199.995 64.342 202.428 66.7997 205.494 68.503C208.609 70.2063 212.137 71.058 216.079 71.058ZM271.644 75.73C264.003 75.73 258.09 72.956 253.905 67.408C253.467 66.8727 253.248 66.3373 253.248 65.802C253.248 65.072 253.588 64.4393 254.27 63.904C254.708 63.5147 255.243 63.32 255.876 63.32C256.8 63.32 257.555 63.7093 258.139 64.488C259.793 66.7753 261.667 68.43 263.76 69.452C265.901 70.474 268.529 70.985 271.644 70.985C275.148 70.985 277.849 69.963 279.747 67.919C281.693 65.8263 282.667 62.9063 282.667 59.159V26.09C282.667 25.1653 282.886 24.4597 283.324 23.973C283.81 23.4377 284.492 23.17 285.368 23.17C286.244 23.17 286.925 23.4377 287.412 23.973C287.947 24.4597 288.215 25.1653 288.215 26.09V58.867C288.215 62.1763 287.509 65.1207 286.098 67.7C284.686 70.2307 282.715 72.2017 280.185 73.613C277.703 75.0243 274.856 75.73 271.644 75.73ZM311.039 75.73C310.211 75.73 309.554 75.4867 309.068 75C308.581 74.4647 308.338 73.7347 308.338 72.81V26.09C308.338 25.1653 308.581 24.4597 309.068 23.973C309.554 23.4377 310.211 23.17 311.039 23.17C311.915 23.17 312.596 23.4377 313.083 23.973C313.569 24.5083 313.813 25.214 313.813 26.09V72.81C313.813 73.686 313.569 74.3917 313.083 74.927C312.596 75.4623 311.915 75.73 311.039 75.73Z" fill="white"/>
</g>
<g filter="url(#filter1_d_117_84)">
<path d="M69.2178 135C68.0385 135 67.1202 134.691 66.4628 134.072C65.8055 133.434 65.4768 132.564 65.4768 131.462V118.18C65.4768 117.097 65.7958 116.247 66.4338 115.628C67.0912 115.009 67.9998 114.7 69.1598 114.7H73.2198C75.2305 114.7 76.9802 115.125 78.4688 115.976C79.9768 116.807 81.1368 117.987 81.9488 119.514C82.7608 121.041 83.1668 122.83 83.1668 124.879C83.1668 126.928 82.7608 128.717 81.9488 130.244C81.1368 131.752 79.9768 132.922 78.4688 133.753C76.9802 134.584 75.2305 135 73.2198 135H69.2178ZM72.9298 133.202C75.4818 133.202 77.4538 132.477 78.8458 131.027C80.2572 129.577 80.9628 127.528 80.9628 124.879C80.9628 122.23 80.2572 120.171 78.8458 118.702C77.4345 117.233 75.4625 116.498 72.9298 116.498H69.1888C68.7248 116.498 68.3478 116.653 68.0578 116.962C67.7872 117.271 67.6518 117.677 67.6518 118.18V131.52C67.6518 132.023 67.7872 132.429 68.0578 132.738C68.3478 133.047 68.7248 133.202 69.1888 133.202H72.9298ZM113.504 135.29C110.99 135.29 109.047 134.642 107.675 133.347C106.302 132.052 105.616 130.215 105.616 127.837C105.616 125.556 106.312 123.767 107.704 122.472C109.096 121.157 111 120.5 113.417 120.5C114.905 120.5 116.23 120.742 117.39 121.225C118.55 121.689 119.449 122.356 120.087 123.226C120.744 124.077 121.073 125.053 121.073 126.155C121.073 126.967 120.841 127.595 120.377 128.04C119.932 128.485 119.313 128.707 118.521 128.707H107.791C107.791 130.196 108.293 131.365 109.299 132.216C110.304 133.047 111.706 133.463 113.504 133.463C114.606 133.463 115.553 133.347 116.346 133.115C117.138 132.864 117.883 132.467 118.579 131.926C118.946 131.617 119.246 131.462 119.478 131.462C119.652 131.462 119.816 131.539 119.971 131.694C120.241 131.926 120.377 132.168 120.377 132.419C120.377 132.612 120.261 132.825 120.029 133.057C119.236 133.811 118.308 134.372 117.245 134.739C116.181 135.106 114.934 135.29 113.504 135.29ZM117.883 126.996C118.231 126.996 118.492 126.928 118.666 126.793C118.84 126.638 118.927 126.368 118.927 125.981C118.927 125.285 118.695 124.657 118.231 124.096C117.767 123.535 117.109 123.1 116.259 122.791C115.427 122.482 114.48 122.327 113.417 122.327C111.696 122.327 110.333 122.752 109.328 123.603C108.342 124.434 107.849 125.565 107.849 126.996H117.883ZM150.976 135.29C149.429 135.29 148.066 134.99 146.887 134.391C145.707 133.772 144.799 132.902 144.161 131.781C143.523 130.66 143.204 129.355 143.204 127.866C143.204 126.397 143.523 125.111 144.161 124.009C144.799 122.888 145.707 122.027 146.887 121.428C148.066 120.809 149.429 120.5 150.976 120.5C152.426 120.5 153.682 120.703 154.746 121.109C155.809 121.515 156.65 122.114 157.269 122.907C157.423 123.12 157.501 123.323 157.501 123.516C157.501 123.806 157.356 124.067 157.066 124.299C156.93 124.415 156.756 124.473 156.544 124.473C156.215 124.473 155.906 124.328 155.616 124.038C154.591 122.897 153.044 122.327 150.976 122.327C149.178 122.327 147.786 122.81 146.8 123.777C145.833 124.724 145.35 126.087 145.35 127.866C145.35 129.625 145.843 130.998 146.829 131.984C147.815 132.97 149.197 133.463 150.976 133.463C151.962 133.463 152.87 133.318 153.702 133.028C154.533 132.719 155.219 132.284 155.761 131.723C156.089 131.394 156.399 131.23 156.689 131.23C156.863 131.23 157.056 131.307 157.269 131.462C157.539 131.694 157.675 131.945 157.675 132.216C157.675 132.467 157.568 132.68 157.356 132.854C156.408 133.705 155.422 134.323 154.398 134.71C153.373 135.097 152.232 135.29 150.976 135.29ZM187.773 135.29C186.091 135.29 184.651 134.952 183.452 134.275C182.254 133.598 181.345 132.699 180.726 131.578C180.127 130.437 179.827 129.21 179.827 127.895C179.827 126.58 180.127 125.362 180.726 124.241C181.345 123.1 182.254 122.192 183.452 121.515C184.651 120.838 186.091 120.5 187.773 120.5C189.455 120.5 190.886 120.838 192.065 121.515C193.264 122.192 194.163 123.1 194.762 124.241C195.381 125.362 195.69 126.58 195.69 127.895C195.69 129.21 195.381 130.437 194.762 131.578C194.163 132.699 193.264 133.598 192.065 134.275C190.886 134.952 189.455 135.29 187.773 135.29ZM187.773 133.463C189.513 133.463 190.905 132.97 191.949 131.984C193.013 130.998 193.544 129.635 193.544 127.895C193.544 126.155 193.013 124.792 191.949 123.806C190.905 122.82 189.513 122.327 187.773 122.327C186.014 122.327 184.603 122.82 183.539 123.806C182.495 124.792 181.973 126.155 181.973 127.895C181.973 129.635 182.495 130.998 183.539 131.984C184.603 132.97 186.014 133.463 187.773 133.463ZM225.552 135.29C223.155 135.29 221.26 134.642 219.868 133.347C218.496 132.032 217.809 130.244 217.809 127.982C217.809 126.551 218.109 125.275 218.708 124.154C219.327 123.013 220.216 122.124 221.376 121.486C222.556 120.829 223.967 120.5 225.61 120.5C227.002 120.5 228.182 120.761 229.148 121.283C230.134 121.805 231.004 122.53 231.758 123.458L231.787 114.149C231.787 113.782 231.874 113.501 232.048 113.308C232.242 113.095 232.512 112.989 232.86 112.989C233.189 112.989 233.44 113.095 233.614 113.308C233.808 113.501 233.904 113.782 233.904 114.149V134.13C233.904 134.497 233.808 134.787 233.614 135C233.44 135.193 233.189 135.29 232.86 135.29C232.532 135.29 232.271 135.193 232.077 135C231.884 134.787 231.787 134.497 231.787 134.13V132.274C231.111 133.26 230.241 134.014 229.177 134.536C228.133 135.039 226.925 135.29 225.552 135.29ZM225.726 133.463C227.602 133.463 229.081 132.97 230.163 131.984C231.246 130.979 231.787 129.616 231.787 127.895C231.787 126.754 231.507 125.768 230.946 124.937C230.405 124.086 229.67 123.439 228.742 122.994C227.834 122.549 226.838 122.327 225.755 122.327C223.938 122.327 222.517 122.849 221.492 123.893C220.468 124.918 219.955 126.281 219.955 127.982C219.955 129.799 220.458 131.172 221.463 132.1C222.469 133.009 223.89 133.463 225.726 133.463ZM264.615 135.29C262.102 135.29 260.159 134.642 258.786 133.347C257.413 132.052 256.727 130.215 256.727 127.837C256.727 125.556 257.423 123.767 258.815 122.472C260.207 121.157 262.111 120.5 264.528 120.5C266.017 120.5 267.341 120.742 268.501 121.225C269.661 121.689 270.56 122.356 271.198 123.226C271.855 124.077 272.184 125.053 272.184 126.155C272.184 126.967 271.952 127.595 271.488 128.04C271.043 128.485 270.425 128.707 269.632 128.707H258.902C258.902 130.196 259.405 131.365 260.41 132.216C261.415 133.047 262.817 133.463 264.615 133.463C265.717 133.463 266.664 133.347 267.457 133.115C268.25 132.864 268.994 132.467 269.69 131.926C270.057 131.617 270.357 131.462 270.589 131.462C270.763 131.462 270.927 131.539 271.082 131.694C271.353 131.926 271.488 132.168 271.488 132.419C271.488 132.612 271.372 132.825 271.14 133.057C270.347 133.811 269.419 134.372 268.356 134.739C267.293 135.106 266.046 135.29 264.615 135.29ZM268.994 126.996C269.342 126.996 269.603 126.928 269.777 126.793C269.951 126.638 270.038 126.368 270.038 125.981C270.038 125.285 269.806 124.657 269.342 124.096C268.878 123.535 268.221 123.1 267.37 122.791C266.539 122.482 265.591 122.327 264.528 122.327C262.807 122.327 261.444 122.752 260.439 123.603C259.453 124.434 258.96 125.565 258.96 126.996H268.994ZM301.49 135.29C299.093 135.29 297.198 134.642 295.806 133.347C294.434 132.032 293.747 130.244 293.747 127.982C293.747 126.551 294.047 125.275 294.646 124.154C295.265 123.013 296.154 122.124 297.314 121.486C298.494 120.829 299.905 120.5 301.548 120.5C302.94 120.5 304.12 120.761 305.086 121.283C306.072 121.805 306.942 122.53 307.696 123.458L307.725 114.149C307.725 113.782 307.812 113.501 307.986 113.308C308.18 113.095 308.45 112.989 308.798 112.989C309.127 112.989 309.378 113.095 309.552 113.308C309.746 113.501 309.842 113.782 309.842 114.149V134.13C309.842 134.497 309.746 134.787 309.552 135C309.378 135.193 309.127 135.29 308.798 135.29C308.47 135.29 308.209 135.193 308.015 135C307.822 134.787 307.725 134.497 307.725 134.13V132.274C307.049 133.26 306.179 134.014 305.115 134.536C304.071 135.039 302.863 135.29 301.49 135.29ZM301.664 133.463C303.54 133.463 305.019 132.97 306.101 131.984C307.184 130.979 307.725 129.616 307.725 127.895C307.725 126.754 307.445 125.768 306.884 124.937C306.343 124.086 305.608 123.439 304.68 122.994C303.772 122.549 302.776 122.327 301.693 122.327C299.876 122.327 298.455 122.849 297.43 123.893C296.406 124.918 295.893 126.281 295.893 127.982C295.893 129.799 296.396 131.172 297.401 132.1C298.407 133.009 299.828 133.463 301.664 133.463Z" fill="white"/>
</g>
<defs>
<filter id="filter0_dd_117_84" x="62.9334" y="23.1699" width="258.879" height="58.5601" filterUnits="userSpaceOnUse" color-interpolation-filters="sRGB">
<feFlood flood-opacity="0" result="BackgroundImageFix"/>
<feColorMatrix in="SourceAlpha" type="matrix" values="0 0 0 0 0 0 0 0 0 0 0 0 0 0 0 0 0 0 127 0" result="hardAlpha"/>
<feOffset dx="3" dy="5"/>
<feComposite in2="hardAlpha" operator="out"/>
<feColorMatrix type="matrix" values="0 0 0 0 0.180833 0 0 0 0 0.4898 0 0 0 0 0.775 0 0 0 1 0"/>
<feBlend mode="normal" in2="BackgroundImageFix" result="effect1_dropShadow_117_84"/>
<feColorMatrix in="SourceAlpha" type="matrix" values="0 0 0 0 0 0 0 0 0 0 0 0 0 0 0 0 0 0 127 0" result="hardAlpha"/>
<feOffset dx="8" dy="6"/>
<feComposite in2="hardAlpha" operator="out"/>
<feColorMatrix type="matrix" values="0 0 0 0 0.180392 0 0 0 0 0.490196 0 0 0 0 0.776471 0 0 0 1 0"/>
<feBlend mode="normal" in2="effect1_dropShadow_117_84" result="effect2_dropShadow_117_84"/>
<feBlend mode="normal" in="SourceGraphic" in2="effect2_dropShadow_117_84" result="shape"/>
</filter>
<filter id="filter1_d_117_84" x="65.4768" y="112.989" width="244.366" height="26.301" filterUnits="userSpaceOnUse" color-interpolation-filters="sRGB">
<feFlood flood-opacity="0" result="BackgroundImageFix"/>
<feColorMatrix in="SourceAlpha" type="matrix" values="0 0 0 0 0 0 0 0 0 0 0 0 0 0 0 0 0 0 127 0" result="hardAlpha"/>
<feOffset dy="4"/>
<feComposite in2="hardAlpha" operator="out"/>
<feColorMatrix type="matrix" values="0 0 0 0 0.337326 0 0 0 0 0.590122 0 0 0 0 0.604167 0 0 0 0.15 0"/>
<feBlend mode="normal" in2="BackgroundImageFix" result="effect1_dropShadow_117_84"/>
<feBlend mode="normal" in="SourceGraphic" in2="effect1_dropShadow_117_84" result="shape"/>
</filter>
</defs>
</svg>
